# xmcd
#
# Track frame offsets: 
#        150
#        14616
#        31363
#        49055
#        69133
#        92220
#        104250
#        129308
#        147228
#        163971
#        179394
#
# Disc length: 2563 seconds
#
# Revision: 0
# Processed by: cddbd v1.5.2PL0 Copyright (c) Steve Scherf et al.
# Submitted via: ExactAudioCopy v0.99pb3
#
DISCID=940a010b
DTITLE=Gary Primich - Just A Little Bit More (Disk 2)
DYEAR=2012
DGENRE=Blues
TTITLE0=Dangerous Man
TTITLE1=Put The Hammer Down
TTITLE2=Mr. Freeze
TTITLE3=Jenny Brown
TTITLE4=One Room Country Shack
TTITLE5=Mail Order Mojo
TTITLE6=Pray For A Cloudy Day
TTITLE7=Keep On Talking
TTITLE8=Never Know When A Woman
TTITLE9=Down In Mississippi
TTITLE10=Indiana
EXTD=
EXTT0=
EXTT1=
EXTT2=
EXTT3=
EXTT4=
EXTT5=
EXTT6=
EXTT7=
EXTT8=
EXTT9=
EXTT10=
PLAYORDER=
